<mxfile host="app.diagrams.net" modified="2024-03-19T17:20:11.843Z" agent="Mozilla/5.0 (Windows NT 10.0; Win64; x64) AppleWebKit/537.36 (KHTML, like Gecko) Chrome/122.0.0.0 Safari/537.36" version="24.0.7" etag="yAO2_Wuo5c_tysiU6eiF" type="github">
  <diagram name="PÃ¡gina-1" id="Ve3Nzls_MdTVMSHJQ57A">
    <mxGraphModel>
      <root>
        <mxCell id="0" />
        <mxCell id="1" parent="0" />
      </root>
    </mxGraphModel>
  </diagram>
</mxfile>
